<svg width="400" height="600" viewBox="0 0 400 600" xmlns="http://www.w3.org/2000/svg">
  <defs>
    <linearGradient id="bg" x1="0" y1="0" x2="0" y2="1">
      <stop offset="0%" stop-color="#3A1212"/>
      <stop offset="100%" stop-color="#0B0B0F"/>
    </linearGradient>
    <linearGradient id="vign" x1="0" y1="0" x2="0" y2="1">
      <stop offset="0%" stop-color="#000000" stop-opacity="0"/>
      <stop offset="100%" stop-color="#000000" stop-opacity="0.65"/>
    </linearGradient>
  </defs>
  <rect width="400" height="600" fill="url(#bg)"/>
  <g><circle cx="200" cy="380" r="60" fill="#E0263F" opacity="0.25"/><line x1="200" y1="380" x2="420.0" y2="380.0" stroke="#E0263F" stroke-width="2" opacity="0.4"/><line x1="200" y1="380" x2="390.5914199896737" y2="489.8858982141012" stroke="#E0263F" stroke-width="2" opacity="0.4"/><line x1="200" y1="380" x2="310.22808521527446" y2="570.39372161333" stroke="#E0263F" stroke-width="2" opacity="0.4"/><line x1="200" y1="380" x2="200.39519168234375" y2="599.9996450532005" stroke="#E0263F" stroke-width="2" opacity="0.4"/><line x1="200" y1="380" x2="90.45664336568919" y2="570.7885033677035" stroke="#E0263F" stroke-width="2" opacity="0.4"/><line x1="200" y1="380" x2="9.804591123396762" y2="490.5699165336653" stroke="#E0263F" stroke-width="2" opacity="0.4"/><line x1="200" y1="380" x2="-19.99858021394732" y2="380.7903820894873" stroke="#E0263F" stroke-width="2" opacity="0.4"/><line x1="200" y1="380" x2="9.015028888527269" y2="270.7995384187873" stroke="#E0263F" stroke-width="2" opacity="0.4"/><line x1="200" y1="380" x2="89.0886089337437" y2="190.00351758059318" stroke="#E0263F" stroke-width="2" opacity="0.4"/><line x1="200" y1="380" x2="198.81443005376542" y2="160.0031945143235" stroke="#E0263F" stroke-width="2" opacity="0.4"/><line x1="200" y1="380" x2="308.8572141612571" y2="188.81917741297846" stroke="#E0263F" stroke-width="2" opacity="0.4"/><line x1="200" y1="380" x2="389.7969428836345" y2="268.747492288819" stroke="#E0263F" stroke-width="2" opacity="0.4"/></g>
  <rect width="400" height="600" fill="url(#vign)"/>
  <rect x="0" y="0" width="400" height="600" fill="none" stroke="#E0263F" stroke-opacity="0.25" stroke-width="6"/>
  <text x="200" y="500" text-anchor="middle" font-family="Arial Black, Arial, sans-serif" font-weight="900" font-size="28" fill="#F5F5F0" letter-spacing="2">CHAIN REACTION</text>
  <text x="200" y="530" text-anchor="middle" font-family="Arial, sans-serif" font-size="11" letter-spacing="3" fill="#E0263F">THE WORLD FOREVER CHANGES</text>
  <rect x="170" y="552" width="60" height="3" fill="#E0263F" opacity="0.6"/>
</svg>