<svg width="400" height="600" viewBox="0 0 400 600" xmlns="http://www.w3.org/2000/svg">
  <defs>
    <linearGradient id="bg" x1="0" y1="0" x2="0" y2="1">
      <stop offset="0%" stop-color="#1A0F2E"/>
      <stop offset="100%" stop-color="#0B0B0F"/>
    </linearGradient>
    <linearGradient id="vign" x1="0" y1="0" x2="0" y2="1">
      <stop offset="0%" stop-color="#000000" stop-opacity="0"/>
      <stop offset="100%" stop-color="#000000" stop-opacity="0.65"/>
    </linearGradient>
  </defs>
  <rect width="400" height="600" fill="url(#bg)"/>
  <g><line x1="200" y1="100" x2="500.0" y2="100.0" stroke="#C77DFF" stroke-width="1" opacity="0.3"/><line x1="200" y1="100" x2="412.2164807501599" y2="312.04755433160983" stroke="#C77DFF" stroke-width="1" opacity="0.3"/><line x1="200" y1="100" x2="200.23889801321997" y2="399.9999048795504" stroke="#C77DFF" stroke-width="1" opacity="0.3"/><line x1="200" y1="100" x2="-11.878493446001556" y2="312.3852725945296" stroke="#C77DFF" stroke-width="1" opacity="0.3"/><line x1="200" y1="100" x2="-99.99961951826185" y2="100.47779587494605" stroke="#C77DFF" stroke-width="1" opacity="0.3"/><line x1="200" y1="100" x2="-12.553929757681829" y2="-111.709298200543" stroke="#C77DFF" stroke-width="1" opacity="0.3"/><line x1="200" y1="100" x2="199.28330656631553" y2="-199.9991439163154" stroke="#C77DFF" stroke-width="1" opacity="0.3"/><line x1="200" y1="100" x2="411.53996870252683" y2="-112.72245213266504" stroke="#C77DFF" stroke-width="1" opacity="0.3"/><circle cx="200" cy="100" r="40" fill="none" stroke="#C77DFF" stroke-width="1" opacity="0.25"/><circle cx="200" cy="100" r="80" fill="none" stroke="#C77DFF" stroke-width="1" opacity="0.25"/><circle cx="200" cy="100" r="120" fill="none" stroke="#C77DFF" stroke-width="1" opacity="0.25"/><circle cx="200" cy="100" r="160" fill="none" stroke="#C77DFF" stroke-width="1" opacity="0.25"/><circle cx="200" cy="100" r="200" fill="none" stroke="#C77DFF" stroke-width="1" opacity="0.25"/><circle cx="200" cy="100" r="240" fill="none" stroke="#C77DFF" stroke-width="1" opacity="0.25"/><circle cx="200" cy="100" r="280" fill="none" stroke="#C77DFF" stroke-width="1" opacity="0.25"/></g>
  <rect width="400" height="600" fill="url(#vign)"/>
  <rect x="0" y="0" width="400" height="600" fill="none" stroke="#C77DFF" stroke-opacity="0.25" stroke-width="6"/>
  <text x="200" y="500" text-anchor="middle" font-family="Arial Black, Arial, sans-serif" font-weight="900" font-size="28" fill="#F5F5F0" letter-spacing="2">MULTIVERSE</text>
  <text x="200" y="530" text-anchor="middle" font-family="Arial, sans-serif" font-size="11" letter-spacing="3" fill="#C77DFF">EVERY HERO HAS A STORY</text>
  <rect x="170" y="552" width="60" height="3" fill="#C77DFF" opacity="0.6"/>
</svg>